<svg width="75" height="75" viewBox="0 0 75 75" fill="none" xmlns="http://www.w3.org/2000/svg">
<path fill-rule="evenodd" clip-rule="evenodd" d="M72 37.5C72 56.5538 56.5538 72 37.5 72C18.4462 72 3 56.5538 3 37.5C3 18.4462 18.4462 3 37.5 3C56.5538 3 72 18.4462 72 37.5ZM75 37.5C75 58.2107 58.2107 75 37.5 75C16.7893 75 0 58.2107 0 37.5C0 16.7893 16.7893 0 37.5 0C58.2107 0 75 16.7893 75 37.5ZM57.2678 35.768L60.2678 37.5L57.2678 39.2321L29.116 55.4855L26.116 57.2176V53.7535V21.2466V17.7825L29.116 19.5145L57.2678 35.768ZM29.116 22.9786L54.2678 37.5L29.116 52.0214V22.9786Z" fill="white"/>
</svg>
