<svg xmlns="http://www.w3.org/2000/svg" xmlns:xlink="http://www.w3.org/1999/xlink"><symbol id="icon-alumni" viewBox="0 0 30 25">
<path d="M15.0061 0L0 8.49858L15.0061 16.9972L30 8.49858L15.0061 0ZM27.499 11.5581L25.945 12.4322C25.9217 14.5946 25.945 20.0467 25.945 23.0312L26.7098 20.7972L27.499 22.157V21.4286V11.5581ZM24.5123 13.2456L14.9939 18.6362L5.4998 13.2578V18.8062L14.9939 24.1845L24.5123 18.794V13.2456Z" fill="#428BCA"/>
</symbol><symbol id="icon-play" viewBox="0 0 75 75">
<path fill-rule="evenodd" clip-rule="evenodd" d="M72 37.5C72 56.5538 56.5538 72 37.5 72C18.4462 72 3 56.5538 3 37.5C3 18.4462 18.4462 3 37.5 3C56.5538 3 72 18.4462 72 37.5ZM75 37.5C75 58.2107 58.2107 75 37.5 75C16.7893 75 0 58.2107 0 37.5C0 16.7893 16.7893 0 37.5 0C58.2107 0 75 16.7893 75 37.5ZM57.2678 35.768L60.2678 37.5L57.2678 39.2321L29.116 55.4855L26.116 57.2176V53.7535V21.2466V17.7825L29.116 19.5145L57.2678 35.768ZM29.116 22.9786L54.2678 37.5L29.116 52.0214V22.9786Z" fill="white"/>
</symbol></svg>